<svg width="60" height="60" viewBox="0 0 60 60" fill="none" xmlns="http://www.w3.org/2000/svg">
<g clip-path="url(#clip0_10_15841)">
<path d="M38.0334 10.8667C41.5953 10.8667 44.5166 13.5829 44.8411 17.0594L52.1528 19.3058C54.3224 19.9721 55.8086 21.9794 55.8086 24.2515C55.8086 26.1135 54.8093 27.8304 53.1864 28.7529L40.8351 35.7656L48.7361 43.6667H53.0668C54.5786 43.6667 55.8001 44.8881 55.8001 46.4C55.8001 47.9119 54.5786 49.1333 53.0668 49.1333H47.6001C46.8741 49.1333 46.1822 48.8429 45.6697 48.3304L36.2311 38.9004C37.2305 35.8254 36.5045 32.3148 34.0616 29.8719C30.5936 26.404 24.9818 26.404 21.5139 29.8633L15.2272 35.8425C14.6805 36.3635 14.6549 37.2262 15.1759 37.7729C15.697 38.3196 16.5597 38.3367 17.1063 37.8242L23.4101 31.8279L23.4186 31.8194L23.4272 31.8108C23.7261 31.5119 24.0507 31.2471 24.3924 31.025C26.7755 29.4448 30.0214 29.7096 32.1226 31.8108C34.2324 33.9206 34.4886 37.1835 32.8914 39.5752C32.6693 39.8998 32.413 40.2158 32.1226 40.5062L28.9622 43.6667H36.6668C38.1786 43.6667 39.4001 44.8881 39.4001 46.4C39.4001 47.9119 38.1786 49.1333 36.6668 49.1333H12.0668C9.05156 49.1333 6.6001 46.6819 6.6001 43.6667C6.6001 29.4533 17.448 17.7769 31.3111 16.4615C31.9005 13.2754 34.6851 10.8667 38.0334 10.8667ZM38.0334 19.75C39.1695 19.75 40.0834 18.836 40.0834 17.7C40.0834 16.564 39.1695 15.65 38.0334 15.65C36.8974 15.65 35.9834 16.564 35.9834 17.7C35.9834 18.836 36.8974 19.75 38.0334 19.75Z" fill="#353739"/>
</g>
<defs>
<clipPath id="clip0_10_15841">
<rect width="49.2" height="43.7333" fill="white" transform="translate(6.6001 8.13333)"/>
</clipPath>
</defs>
</svg>
