<svg width="60" height="60" viewBox="0 0 60 60" fill="none" xmlns="http://www.w3.org/2000/svg">
<path d="M30.8438 3C28.5129 3 26.625 4.88789 26.625 7.21875V24.5367C25.7285 23.7352 24.5473 23.25 23.25 23.25C20.4551 23.25 18.1875 25.5176 18.1875 28.3125V29.0508V36.75C18.1875 37.6781 17.4281 38.4375 16.5 38.4375C15.5719 38.4375 14.8125 37.6781 14.8125 36.75V30.8754C14.6016 31.023 14.4012 31.1918 14.2008 31.35L12.1758 33.0375C10.6359 34.3242 9.75 36.2227 9.75 38.2266V42.2344C9.75 46.2422 11.5324 50.0391 14.6121 52.602L15.1816 53.0766C18.2191 55.6078 22.0371 56.9895 25.9816 56.9895H38.4375C45.8941 56.9895 51.9375 50.9461 51.9375 43.4895V36.75V33.375C51.9375 30.5801 49.6699 28.3125 46.875 28.3125C45.5672 28.3125 44.3859 28.8082 43.4895 29.6098C43.2891 26.9941 41.1059 24.9375 38.4375 24.9375C37.1402 24.9375 35.959 25.4227 35.0625 26.2242V7.21875C35.0625 4.88789 33.1746 3 30.8438 3Z" fill="#353739"/>
</svg>
