<svg width="60" height="60" viewBox="0 0 60 60" fill="none" xmlns="http://www.w3.org/2000/svg">
<path d="M15.0001 17.9719C15.0001 13.0219 19.0219 9 23.9719 9C28.5001 9 32.3157 12.375 32.8782 16.8656L32.9719 17.6344C33.1782 19.275 32.0157 20.775 30.3657 20.9812C28.7157 21.1875 27.2251 20.025 27.0188 18.375L26.9251 17.6062C26.7376 16.1156 25.4719 15 23.9719 15C22.3313 15 21.0001 16.3312 21.0001 17.9719V27H39.0001V17.9719C39.0001 13.0219 43.0219 9 47.9719 9C52.5001 9 56.3157 12.375 56.8782 16.8656L56.9719 17.6344C57.1782 19.275 56.0157 20.775 54.3657 20.9812C52.7157 21.1875 51.2251 20.025 51.0188 18.375L50.9251 17.6062C50.7376 16.1156 49.4719 15 47.9719 15C46.3313 15 45.0001 16.3312 45.0001 17.9719V39.8437C44.8501 39.9375 44.6907 40.0312 44.5501 40.1344C42.8626 41.2969 40.7907 42.0375 39.0001 42.0375V33H21.0001V42.0469C19.2188 42.0469 17.1376 41.3062 15.4594 40.1437C15.3094 40.0406 15.1594 39.9375 15.0001 39.8531V17.9719ZM31.7344 42.5531C33.8438 44.0062 36.4219 45 39.0001 45C41.5219 45 44.1938 43.9875 46.2563 42.5531C47.3719 41.7562 48.8907 41.8219 49.9313 42.7125C51.2813 43.8281 52.9782 44.6812 54.6751 45.075C56.2876 45.45 57.2907 47.0625 56.9157 48.675C56.5407 50.2875 54.9282 51.2906 53.3157 50.9156C51.0188 50.3812 49.1063 49.3687 47.8594 48.5719C45.1407 50.0344 42.0938 51 39.0001 51C36.0094 51 33.3188 50.0719 31.4626 49.2281C30.9188 48.975 30.4219 48.7312 30.0001 48.5062C29.5782 48.7312 29.0907 48.9844 28.5376 49.2281C26.6813 50.0719 23.9907 51 21.0001 51C17.9063 51 14.8594 50.0344 12.1407 48.5812C10.8844 49.3687 8.98132 50.3906 6.68445 50.925C5.07195 51.3 3.45945 50.2969 3.08445 48.6844C2.70945 47.0719 3.71257 45.4594 5.32507 45.0844C7.02195 44.6906 8.71882 43.8375 10.0688 42.7219C11.1094 41.8406 12.6282 41.775 13.7438 42.5625C15.8157 43.9875 18.4782 45 21.0001 45C23.5782 45 26.1563 44.0062 28.2657 42.5531C29.3063 41.8125 30.6938 41.8125 31.7344 42.5531Z" fill="#353739"/>
</svg>
